<?xml version="1.0" standalone="no"?>
<!DOCTYPE svg PUBLIC "-//W3C//DTD SVG 20010904//EN"
 "http://www.w3.org/TR/2001/REC-SVG-20010904/DTD/svg10.dtd">
<svg version="1.0" xmlns="http://www.w3.org/2000/svg"
 width="802.000000pt" height="802.000000pt" viewBox="0 0 802.000000 802.000000"
 preserveAspectRatio="xMidYMid meet">
<metadata>
Created by potrace 1.11, written by Peter Selinger 2001-2013
</metadata>
<g transform="translate(0.000000,802.000000) scale(0.100000,-0.100000)"
fill="#000000" stroke="none">
<path d="M3070 8012 c0 -7 -5 -10 -10 -7 -6 4 -17 1 -25 -5 -8 -7 -15 -10 -15
-8 0 5 -52 -3 -110 -17 -14 -4 -32 -8 -40 -9 -8 -1 -22 -5 -30 -8 -8 -4 -33
-12 -55 -19 -22 -6 -58 -20 -80 -30 -23 -10 -47 -19 -55 -21 -8 -2 -17 -6 -20
-9 -6 -8 -82 -46 -95 -49 -5 0 -19 -9 -30 -19 -11 -10 -41 -32 -68 -50 -26
-18 -58 -43 -72 -57 -13 -13 -27 -24 -31 -24 -9 0 -135 -130 -126 -130 4 0 0
-5 -9 -10 -9 -5 -29 -28 -45 -52 -16 -23 -36 -50 -45 -59 -9 -9 -22 -30 -30
-47 -8 -18 -17 -32 -21 -32 -5 0 -8 -5 -8 -11 0 -6 -9 -24 -21 -40 -11 -16
-18 -29 -14 -29 3 0 -2 -13 -11 -29 -13 -23 -26 -30 -56 -33 -22 -2 -41 -2
-43 0 -8 9 -115 7 -115 -2 0 -5 -7 -3 -15 4 -12 10 -15 10 -15 0 0 -10 -3 -10
-14 -1 -11 9 -16 9 -21 0 -6 -8 -10 -7 -16 2 -6 10 -9 11 -9 2 0 -7 -9 -13
-19 -13 -20 0 -124 -49 -106 -50 6 0 -3 -9 -20 -20 -16 -11 -26 -20 -21 -20 5
0 2 -8 -7 -18 -18 -19 -39 -67 -44 -97 -8 -52 -8 -105 0 -105 4 0 5 -4 2 -10
-3 -5 -1 -10 5 -10 6 0 9 -4 5 -10 -5 -8 5 -32 27 -64 27 -39 61 -69 102 -86
25 -12 46 -24 46 -27 0 -4 -3 -3 -7 0 -3 4 -15 -1 -25 -10 -17 -15 -18 -15
-13 0 6 13 2 15 -22 9 -15 -4 -119 -7 -230 -6 -112 0 -203 -3 -203 -8 0 -4 -4
-7 -9 -6 -16 5 -71 -43 -71 -61 0 -11 -6 -22 -12 -24 -10 -4 -10 -6 0 -6 8 -1
10 -6 5 -13 -11 -19 -12 -37 -2 -44 6 -3 5 -11 -2 -20 -9 -11 -8 -14 2 -14 9
0 10 -3 3 -8 -13 -9 -13 -94 1 -104 7 -5 7 -8 0 -8 -12 0 -13 -105 -2 -116 4
-4 7 -14 7 -21 0 -33 56 -72 107 -75 7 -1 11 -4 8 -6 -3 -3 0 -11 6 -19 6 -7
8 -13 3 -13 -7 0 -10 -344 -4 -357 1 -3 2 -114 1 -134 -1 -5 -5 -8 -10 -5 -5
4 -12 0 -14 -6 -4 -10 -8 -9 -16 2 -8 11 -11 11 -11 2 0 -9 -5 -10 -19 -2 -12
6 -22 6 -26 1 -3 -6 -17 -6 -35 -1 -17 5 -30 5 -30 0 0 -5 -13 -5 -30 0 -16 5
-30 5 -30 1 0 -8 -65 -5 -87 3 -7 3 -13 0 -13 -7 0 -8 -3 -8 -9 2 -7 11 -9 11
-14 0 -4 -12 -7 -11 -16 1 -8 11 -11 11 -11 2 0 -9 -5 -10 -19 -2 -12 6 -22 6
-26 1 -3 -6 -17 -6 -35 -1 -17 5 -30 5 -30 0 0 -5 -13 -5 -30 0 -16 5 -30 5
-30 1 0 -8 -65 -5 -87 3 -7 3 -13 2 -13 -2 0 -4 -19 -7 -42 -6 -50 1 -127 -34
-168 -76 -15 -16 -31 -27 -34 -24 -3 2 -4 1 -2 -2 3 -3 -6 -25 -18 -47 -13
-23 -21 -48 -19 -54 3 -7 0 -13 -5 -13 -15 0 -1 -112 21 -162 6 -16 15 -28 19
-28 5 0 8 -6 8 -13 0 -25 103 -99 137 -99 13 0 23 -4 23 -9 0 -5 6 -9 13 -9 7
0 19 -8 27 -17 13 -16 15 -320 16 -2418 0 -1320 3 -2409 6 -2420 23 -93 123
-195 185 -190 13 1 23 -1 23 -4 0 -3 1467 -6 3260 -6 1793 0 3260 3 3260 7 0
3 8 5 17 4 17 -3 74 30 81 47 2 4 8 5 13 1 5 -3 9 2 9 11 0 8 6 18 14 21 13 5
43 57 55 94 2 8 5 1099 6 2424 2 2157 4 2410 18 2425 23 23 51 46 54 44 9 -9
44 -1 57 12 8 8 19 15 25 15 5 0 16 9 24 20 8 11 17 17 20 13 4 -3 7 1 7 10 0
9 5 17 11 17 5 0 8 4 5 9 -3 5 1 12 10 15 9 4 14 9 11 13 -4 3 -2 12 3 19 6 6
13 23 16 35 9 39 10 138 2 133 -4 -3 -8 4 -8 16 0 53 -103 161 -167 175 -10 2
-31 8 -48 12 -39 11 -326 10 -344 -2 -9 -5 -12 -4 -8 2 4 6 -6 10 -23 9 -17
-1 -30 -4 -30 -8 0 -4 -13 -3 -30 2 -20 6 -30 5 -30 -2 0 -6 -6 -6 -15 2 -12
10 -15 10 -15 -1 0 -12 -2 -12 -9 0 -5 8 -11 9 -15 3 -4 -7 -17 -7 -36 -2 -17
5 -30 6 -30 2 0 -4 -27 -7 -60 -7 -33 0 -60 4 -60 10 0 6 -5 3 -10 -5 -9 -13
-10 -13 -10 0 0 13 -1 13 -10 0 -9 -13 -10 -13 -10 0 0 9 -3 11 -8 5 -4 -5
-16 -10 -27 -10 -11 0 -23 5 -27 10 -5 6 -8 5 -8 -3 0 -10 -5 -10 -20 -2 -15
8 -20 8 -20 -2 0 -10 -2 -10 -9 1 -5 8 -11 9 -15 3 -4 -7 -17 -7 -36 -2 -20 6
-30 5 -30 -2 0 -6 -6 -6 -15 2 -12 10 -15 10 -15 -1 0 -12 -2 -12 -9 0 -5 8
-11 9 -15 3 -4 -7 -17 -7 -36 -2 -21 6 -30 5 -30 -3 0 -7 -4 -6 -10 3 -6 9
-10 11 -10 3 0 -8 -7 -10 -17 -6 -11 4 -13 8 -5 11 10 3 10 7 1 18 -7 9 -8 14
-1 14 7 0 8 10 2 30 -5 17 -5 30 -1 30 4 0 5 20 1 45 -4 27 -3 45 3 45 5 0 4
7 -3 15 -8 9 -8 15 -2 15 7 0 8 10 2 30 -5 17 -5 30 0 30 5 0 5 13 0 30 -5 17
-5 30 -1 30 4 0 5 20 1 45 -4 27 -3 45 3 45 5 0 4 7 -3 15 -8 9 -8 15 -2 15 7
0 8 10 2 30 -5 17 -5 30 0 30 5 0 5 13 0 30 -5 17 -5 30 -1 30 4 0 5 20 1 45
-4 27 -3 45 3 45 5 0 4 7 -3 15 -8 9 -8 15 -2 15 7 0 8 10 2 30 -5 17 -5 30 0
30 5 0 5 13 0 30 -5 17 -5 30 -1 30 4 0 4 27 1 60 -3 33 -3 60 1 60 3 0 3 18
-1 40 -4 22 -4 40 0 40 4 0 6 10 4 23 -1 12 -3 22 -4 22 -1 0 -3 34 -4 75 -2
41 -4 75 -6 75 -3 0 -10 63 -11 107 -1 21 -6 35 -11 32 -7 -4 -13 43 -9 69 0
4 -3 7 -8 7 -5 0 -11 12 -14 28 -9 46 -12 56 -21 70 -4 7 -6 16 -2 19 3 3 -2
12 -10 20 -8 9 -18 28 -21 44 -3 16 -10 29 -16 29 -6 0 -8 3 -4 6 3 4 -1 13
-9 21 -8 8 -12 18 -9 23 3 4 -2 13 -10 20 -8 7 -15 17 -15 22 0 11 -61 101
-72 106 -5 2 -8 10 -8 17 0 8 -11 22 -25 33 -13 11 -22 22 -19 24 3 3 -9 17
-26 31 -16 14 -30 29 -30 32 0 12 -125 125 -138 125 -7 0 -10 5 -7 10 3 6 -1
10 -10 10 -8 0 -18 7 -21 15 -4 8 -10 12 -15 9 -5 -3 -9 0 -9 5 0 6 -7 11 -15
11 -8 0 -15 4 -15 9 0 4 -20 19 -45 32 -25 13 -45 28 -45 32 0 5 -4 5 -10 2
-5 -3 -10 -1 -10 5 0 6 -4 8 -10 5 -5 -3 -10 -1 -10 4 0 6 -9 11 -20 11 -11 0
-20 5 -20 10 0 6 -3 10 -7 9 -16 -2 -53 14 -53 22 0 5 -3 8 -7 7 -11 -4 -133
36 -133 43 0 3 -13 5 -30 4 -16 -1 -30 1 -30 5 0 4 -6 7 -12 7 -7 0 -31 5 -53
10 -22 5 -50 9 -62 8 -13 -1 -23 2 -23 7 0 4 -5 8 -11 8 -5 0 -7 -6 -3 -12 4
-7 -1 -5 -11 4 -17 16 -19 16 -32 0 -9 -12 -12 -13 -8 -2 4 13 -9 15 -87 14
-131 -2 -130 -2 -122 -16 6 -10 4 -10 -7 -2 -16 12 -49 15 -49 4 0 -4 -12 -8
-27 -8 -16 0 -41 -3 -58 -7 -16 -3 -40 -7 -52 -7 -13 -1 -23 -5 -23 -8 0 -3
-12 -7 -26 -8 -15 -1 -32 -6 -39 -12 -6 -5 -15 -7 -18 -3 -4 3 -7 2 -7 -3 0
-5 -12 -11 -27 -12 -15 -1 -30 -7 -34 -13 -3 -6 -9 -10 -13 -10 -15 3 -56 -12
-56 -20 0 -5 -3 -8 -7 -7 -10 3 -107 -45 -111 -54 -2 -5 -8 -8 -13 -8 -11 0
-112 -67 -149 -100 -58 -50 -65 -56 -72 -55 -4 0 -13 -8 -20 -18 -12 -16 -16
-15 -49 15 -70 64 -100 89 -124 100 -14 6 -25 15 -25 20 0 4 -7 8 -15 8 -8 0
-15 5 -15 12 0 6 -3 8 -6 5 -4 -4 -15 3 -25 14 -9 11 -21 21 -26 21 -24 3 -43
11 -43 19 0 5 -9 9 -20 9 -11 0 -20 4 -20 8 0 9 -78 37 -92 34 -5 -1 -8 2 -8
8 0 6 -7 10 -15 10 -8 0 -23 4 -33 9 -9 6 -30 13 -47 17 -36 9 -35 9 -58 18
-9 5 -27 6 -38 3 -11 -3 -22 0 -25 7 -2 6 -22 11 -44 10 -22 0 -40 2 -40 7 0
4 -7 10 -16 13 -8 3 -12 2 -9 -4 3 -6 1 -10 -4 -10 -6 0 -11 3 -11 8 0 4 -59
7 -130 7 -81 0 -130 -4 -130 -10 0 -5 -5 -3 -10 5 -7 11 -10 11 -10 2z m283
-545 c15 -1 27 -5 27 -8 0 -3 6 -6 13 -7 41 -3 57 -7 57 -14 0 -4 8 -8 18 -8
10 0 22 -3 26 -7 4 -5 11 -8 14 -9 28 -3 62 -18 62 -27 0 -6 3 -8 6 -5 5 6 20
-3 97 -55 47 -31 137 -114 137 -125 0 -6 5 -12 12 -14 7 -3 -14 -17 -45 -33
-32 -15 -71 -40 -87 -55 -17 -16 -30 -26 -30 -23 0 6 -61 -60 -85 -93 -11 -15
-19 -31 -17 -36 1 -4 -2 -8 -8 -8 -5 0 -10 -7 -10 -16 0 -11 -10 -5 -33 19
-17 20 -49 47 -70 61 -42 29 -107 58 -107 49 0 -3 -7 0 -15 7 -19 16 -188 18
-207 3 -7 -6 -21 -9 -30 -8 -10 2 -18 0 -18 -3 0 -4 -23 -18 -51 -32 -28 -14
-55 -33 -60 -42 -5 -10 -17 -18 -25 -18 -8 0 -12 -4 -9 -10 3 -5 1 -10 -4 -10
-6 0 -11 -7 -11 -16 0 -14 -2 -14 -15 0 -8 8 -15 18 -15 23 0 13 -51 73 -102
122 -50 47 -144 105 -158 96 -4 -3 -10 4 -13 15 -3 12 1 21 12 25 9 3 27 21
41 40 14 19 30 35 35 35 6 0 17 9 25 20 8 11 18 20 23 20 8 0 68 40 77 52 3 3
14 8 25 10 11 1 23 7 26 12 8 11 77 37 101 39 9 1 14 5 11 10 -3 5 0 7 8 5 8
-3 25 -1 39 4 13 5 43 12 65 15 22 3 41 6 42 7 3 2 178 -3 226 -7z m1822 3 c0
-1 17 -3 37 -4 21 -1 41 -5 44 -9 4 -4 18 -7 31 -7 13 0 23 -4 23 -8 0 -4 12
-9 27 -10 15 -1 32 -7 37 -12 6 -6 18 -10 28 -10 10 0 18 -4 18 -8 0 -5 16
-14 35 -22 19 -8 35 -18 35 -24 0 -5 3 -7 6 -3 6 5 15 0 49 -30 7 -7 17 -13
21 -13 7 0 123 -118 149 -152 26 -33 75 -116 75 -126 0 -7 4 -12 10 -12 5 0 9
-3 8 -7 -1 -5 4 -21 10 -36 7 -16 12 -34 12 -42 0 -8 5 -17 10 -20 6 -3 10
-19 10 -34 0 -15 3 -31 6 -34 8 -8 15 -66 16 -129 1 -26 5 -45 11 -41 5 3 4
-5 -3 -17 -10 -18 -9 -24 1 -31 8 -5 9 -9 4 -9 -14 0 -14 -43 -1 -52 7 -5 7
-8 1 -8 -5 0 -11 -11 -11 -25 -1 -14 2 -22 8 -19 6 4 7 0 1 -12 -11 -23 -11
-54 1 -73 6 -9 5 -12 -1 -8 -7 4 -10 -3 -9 -18 0 -14 5 -25 9 -25 5 0 5 -6 0
-12 -11 -18 -11 -31 1 -47 8 -11 8 -13 0 -8 -7 4 -11 -2 -11 -18 0 -14 4 -25
9 -25 6 0 5 -6 -1 -14 -10 -11 -10 -20 -1 -37 7 -12 8 -19 3 -16 -5 4 -10 -7
-10 -23 0 -17 5 -30 11 -30 7 0 7 -3 1 -8 -14 -10 -16 -45 -2 -54 7 -4 8 -8 2
-8 -5 0 -11 -11 -11 -25 -1 -14 2 -22 8 -19 6 4 7 0 1 -12 -11 -23 -11 -54 1
-73 6 -9 5 -12 -1 -8 -7 4 -10 -3 -9 -18 0 -14 5 -25 9 -25 5 0 5 -6 0 -12
-11 -18 -11 -31 1 -47 8 -11 8 -13 0 -8 -7 4 -11 -2 -11 -18 0 -14 4 -25 9
-25 5 0 6 -6 1 -12 -13 -21 -12 -69 1 -61 6 4 5 0 -2 -9 -9 -11 -10 -18 -2
-23 7 -4 6 -13 -2 -28 -6 -12 -11 -23 -10 -24 11 -16 -20 -20 -143 -19 -91 1
-145 -3 -145 -9 0 -5 -4 -4 -9 4 -5 8 -11 9 -15 3 -4 -7 -17 -7 -36 -2 -17 5
-30 6 -30 2 0 -11 -114 -8 -122 3 -5 6 -8 4 -8 -5 0 -13 -1 -13 -10 0 -9 13
-10 13 -10 0 0 -13 -1 -13 -10 0 -5 8 -10 10 -10 4 0 -8 -11 -9 -35 -4 -24 5
-35 4 -35 -4 0 -6 -5 -4 -10 4 -8 12 -10 12 -10 1 0 -8 -3 -11 -7 -7 -5 4 -8
128 -9 274 l0 267 30 2 c47 4 107 76 97 117 -1 5 4 13 11 17 7 5 8 9 3 9 -12
0 -11 92 0 110 5 8 4 11 -2 7 -13 -8 -11 126 2 135 6 5 5 8 -3 8 -7 0 -11 4
-7 9 3 5 1 12 -4 16 -6 3 -8 12 -4 20 3 8 0 15 -6 15 -6 0 -11 6 -11 13 0 29
-73 56 -156 58 -43 0 -83 0 -89 -1 -5 -1 -14 -2 -20 -1 -11 2 -157 0 -237 -3
-35 -1 -48 2 -48 12 0 7 5 12 12 10 7 -3 21 3 31 11 55 44 87 77 87 88 0 7 4
13 9 13 5 0 13 15 16 33 4 17 11 37 15 42 9 12 6 102 -4 130 -31 85 -78 140
-146 170 -24 11 -47 20 -51 20 -4 0 -10 2 -12 5 -3 3 -57 4 -121 4 -64 -1
-116 0 -116 2 0 12 93 93 101 89 5 -4 9 0 9 8 0 8 14 20 30 27 17 7 30 16 30
21 0 5 7 9 15 9 8 0 15 4 15 10 0 6 3 9 8 9 20 -3 32 2 26 13 -4 6 -3 8 3 5
12 -8 73 14 73 26 0 4 5 5 10 2 6 -3 16 -3 23 2 6 4 17 8 22 9 6 1 24 5 40 9
17 3 46 9 65 12 19 3 36 6 37 7 3 3 178 -1 178 -4z"/>
</g>
</svg>
